M48
; DRILL file {KiCad 5.1.8} date Mon Nov 30 22:47:44 2020
; FORMAT={-:-/ absolute / inch / decimal}
; #@! TF.CreationDate,2020-11-30T22:47:44+01:00
; #@! TF.GenerationSoftware,Kicad,Pcbnew,5.1.8
; #@! TF.FileFunction,Plated,1,2,PTH
FMAT,2
INCH
T1C0.0157
T2C0.0394
%
G90
G05
T1
X4.65Y-3.84
X4.65Y-3.94
X4.65Y-4.04
X4.65Y-4.14
X4.65Y-4.24
X4.67Y-4.49
X4.68Y-4.6
X4.7063Y-3.376
X4.76Y-4.52
X4.8348Y-4.49
X4.87Y-3.84
X4.87Y-3.94
X4.87Y-4.04
X4.87Y-4.14
X4.89Y-4.46
X4.9063Y-3.376
X4.935Y-4.0748
X5.1063Y-3.376
X5.2717Y-4.0551
X5.3063Y-3.376
X5.3521Y-4.0903
X5.48Y-4.52
X5.55Y-4.57
X5.57Y-4.63
X5.5963Y-4.435
X5.6181Y-3.5748
X5.6572Y-3.2911
X5.66Y-3.33
X5.67Y-4.49
X5.714Y-3.84
X5.7362Y-4.5394
X5.7717Y-4.3346
X5.8917Y-4.5335
X5.8937Y-4.4315
X5.9371Y-3.7957
X5.9764Y-3.8115
X5.9803Y-3.9882
X6.0098Y-4.5433
X6.0138Y-3.9488
X6.0472Y-3.2835
X6.0709Y-4.027
X6.0787Y-4.6594
X6.0945Y-4.4587
X6.1135Y-3.33
X6.1654Y-3.5709
X6.1812Y-4.0903
X6.187Y-4.1299
X6.1953Y-4.1684
X6.1988Y-4.0551
X6.2244Y-4.5492
X6.2323Y-4.6457
X6.2402Y-4.4193
X6.2756Y-3.9488
X6.2815Y-4.4695
X6.2815Y-4.563
X6.2835Y-4.4203
X6.3287Y-4.6043
X6.3287Y-4.6433
X6.3327Y-4.561
X6.3386Y-4.002
X6.3396Y-3.565
X6.3602Y-3.6122
X6.3681Y-3.4921
X6.372Y-3.7913
X6.3858Y-3.2815
X6.3974Y-4.3
X6.4016Y-3.0197
X6.4154Y-3.6043
X6.4193Y-4.3632
X6.4266Y-4.2708
X6.439Y-3.4094
X6.4606Y-4.5453
X6.4665Y-4.3917
X6.4783Y-4.002
X6.4803Y-3.0669
X6.4951Y-3.1467
X6.5Y-4.5236
X6.5164Y-4.4203
X6.5236Y-3.2244
X6.5236Y-4.4843
X6.5241Y-3.6156
X6.5384Y-3.1102
X6.5394Y-2.8858
X6.5445Y-3.8594
X6.5512Y-2.7795
X6.56Y-3.7096
X6.563Y-4.1969
X6.5669Y-3.1949
X6.5709Y-3.8957
X6.5807Y-3.0472
X6.5827Y-2.9921
X6.6083Y-3.1752
X6.6201Y-4.5285
X6.6319Y-3.752
X6.6417Y-3.9626
X6.6516Y-3.1102
X6.6549Y-3.5251
X6.6949Y-4.5
X6.7087Y-3.7815
X6.7244Y-3.1457
X6.7264Y-4.1083
X6.727Y-4.19
X6.7343Y-3.437
X6.7343Y-3.876
X6.748Y-3.623
X6.7736Y-4.1594
X6.7815Y-3.8346
X6.7854Y-3.3366
X6.7963Y-3.4478
X6.8123Y-3.6634
X6.8261Y-3.345
X6.8327Y-3.2205
X6.8445Y-4.4715
X6.8533Y-3.4094
X6.8661Y-3.8307
X6.9114Y-4.5285
X6.9134Y-3.8386
X6.9232Y-3.4114
X6.9232Y-4.31
X6.9232Y-4.3514
X6.9301Y-3.5177
X6.9528Y-4.498
X6.9587Y-3.6142
X6.9606Y-3.8189
X6.9921Y-3.1142
X7.0Y-2.79
X7.02Y-2.95
X7.0402Y-2.885
X7.0709Y-3.872
X7.0846Y-3.1752
X7.0945Y-3.6693
X7.1004Y-3.8209
X7.1201Y-4.0157
X7.1299Y-3.0728
X7.1457Y-3.8917
X7.1585Y-3.7736
X7.185Y-4.0827
X7.189Y-3.0335
X7.2028Y-3.2205
X7.2047Y-3.3681
X7.2067Y-3.4291
X7.2224Y-3.7657
X7.2323Y-4.3366
X7.2825Y-3.1476
X7.2825Y-3.7758
X7.311Y-3.1024
X7.314Y-3.4252
X7.314Y-3.9626
X7.315Y-3.0197
X7.3387Y-3.8355
X7.3425Y-4.0315
X7.3445Y-3.8858
T2
X3.9547Y-3.1142
X3.9547Y-3.2142
X3.9547Y-3.3142
X3.9547Y-3.4142
X4.0547Y-3.1142
X4.0547Y-3.2142
X4.0547Y-3.3142
X4.0547Y-3.4142
T0
M30
