G04 #@! TF.GenerationSoftware,KiCad,Pcbnew,5.1.8*
G04 #@! TF.CreationDate,2020-11-30T22:47:42+01:00*
G04 #@! TF.ProjectId,ml_dev_board,6d6c5f64-6576-45f6-926f-6172642e6b69,rev?*
G04 #@! TF.SameCoordinates,Original*
G04 #@! TF.FileFunction,Soldermask,Bot*
G04 #@! TF.FilePolarity,Negative*
%FSLAX46Y46*%
G04 Gerber Fmt 4.6, Leading zero omitted, Abs format (unit mm)*
G04 Created by KiCad (PCBNEW 5.1.8) date 2020-11-30 22:47:42*
%MOMM*%
%LPD*%
G01*
G04 APERTURE LIST*
%ADD10C,1.102000*%
%ADD11C,1.802000*%
%ADD12C,0.100000*%
G04 APERTURE END LIST*
D10*
X181800000Y-111800000D03*
X181800000Y-107400000D03*
G36*
G01*
X99549000Y-79736000D02*
X99549000Y-78464000D01*
G75*
G02*
X99814000Y-78199000I265000J0D01*
G01*
X101086000Y-78199000D01*
G75*
G02*
X101351000Y-78464000I0J-265000D01*
G01*
X101351000Y-79736000D01*
G75*
G02*
X101086000Y-80001000I-265000J0D01*
G01*
X99814000Y-80001000D01*
G75*
G02*
X99549000Y-79736000I0J265000D01*
G01*
G37*
D11*
X100450000Y-81640000D03*
X100450000Y-84180000D03*
X100450000Y-86720000D03*
X102990000Y-79100000D03*
X102990000Y-81640000D03*
X102990000Y-84180000D03*
X102990000Y-86720000D03*
D12*
G36*
X99550990Y-79735804D02*
G01*
X99556062Y-79787304D01*
X99571029Y-79836642D01*
X99595332Y-79882110D01*
X99628038Y-79921962D01*
X99667890Y-79954668D01*
X99713358Y-79978971D01*
X99762696Y-79993938D01*
X99814196Y-79999010D01*
X99815822Y-80000175D01*
X99815626Y-80002165D01*
X99814000Y-80003000D01*
X99731903Y-80003000D01*
X99731707Y-80002990D01*
X99691204Y-79999001D01*
X99690819Y-79998925D01*
X99657767Y-79988899D01*
X99657405Y-79988749D01*
X99626954Y-79972472D01*
X99626628Y-79972254D01*
X99599932Y-79950345D01*
X99599655Y-79950068D01*
X99577746Y-79923372D01*
X99577528Y-79923046D01*
X99561251Y-79892595D01*
X99561101Y-79892233D01*
X99551075Y-79859181D01*
X99550999Y-79858796D01*
X99547010Y-79818293D01*
X99547000Y-79818097D01*
X99547000Y-79736000D01*
X99548000Y-79734268D01*
X99550000Y-79734268D01*
X99550990Y-79735804D01*
G37*
G36*
X101352165Y-79734374D02*
G01*
X101353000Y-79736000D01*
X101353000Y-79818097D01*
X101352990Y-79818293D01*
X101349001Y-79858796D01*
X101348925Y-79859181D01*
X101338899Y-79892233D01*
X101338749Y-79892595D01*
X101322472Y-79923046D01*
X101322254Y-79923372D01*
X101300345Y-79950068D01*
X101300068Y-79950345D01*
X101273372Y-79972254D01*
X101273046Y-79972472D01*
X101242595Y-79988749D01*
X101242233Y-79988899D01*
X101209181Y-79998925D01*
X101208796Y-79999001D01*
X101168293Y-80002990D01*
X101168097Y-80003000D01*
X101086000Y-80003000D01*
X101084268Y-80002000D01*
X101084268Y-80000000D01*
X101085804Y-79999010D01*
X101137304Y-79993938D01*
X101186642Y-79978971D01*
X101232110Y-79954668D01*
X101271962Y-79921962D01*
X101304668Y-79882110D01*
X101328971Y-79836642D01*
X101343938Y-79787304D01*
X101349010Y-79735804D01*
X101350175Y-79734178D01*
X101352165Y-79734374D01*
G37*
G36*
X99815732Y-78198000D02*
G01*
X99815732Y-78200000D01*
X99814196Y-78200990D01*
X99762696Y-78206062D01*
X99713358Y-78221029D01*
X99667890Y-78245332D01*
X99628038Y-78278038D01*
X99595332Y-78317890D01*
X99571029Y-78363358D01*
X99556062Y-78412696D01*
X99550990Y-78464196D01*
X99549825Y-78465822D01*
X99547835Y-78465626D01*
X99547000Y-78464000D01*
X99547000Y-78381903D01*
X99547010Y-78381707D01*
X99550999Y-78341204D01*
X99551075Y-78340819D01*
X99561101Y-78307767D01*
X99561251Y-78307405D01*
X99577528Y-78276954D01*
X99577746Y-78276628D01*
X99599655Y-78249932D01*
X99599932Y-78249655D01*
X99626628Y-78227746D01*
X99626954Y-78227528D01*
X99657405Y-78211251D01*
X99657767Y-78211101D01*
X99690819Y-78201075D01*
X99691204Y-78200999D01*
X99731707Y-78197010D01*
X99731903Y-78197000D01*
X99814000Y-78197000D01*
X99815732Y-78198000D01*
G37*
G36*
X101168293Y-78197010D02*
G01*
X101208796Y-78200999D01*
X101209181Y-78201075D01*
X101242233Y-78211101D01*
X101242595Y-78211251D01*
X101273046Y-78227528D01*
X101273372Y-78227746D01*
X101300068Y-78249655D01*
X101300345Y-78249932D01*
X101322254Y-78276628D01*
X101322472Y-78276954D01*
X101338749Y-78307405D01*
X101338899Y-78307767D01*
X101348925Y-78340819D01*
X101349001Y-78341204D01*
X101352990Y-78381707D01*
X101353000Y-78381903D01*
X101353000Y-78464000D01*
X101352000Y-78465732D01*
X101350000Y-78465732D01*
X101349010Y-78464196D01*
X101343938Y-78412696D01*
X101328971Y-78363358D01*
X101304668Y-78317890D01*
X101271962Y-78278038D01*
X101232110Y-78245332D01*
X101186642Y-78221029D01*
X101137304Y-78206062D01*
X101085804Y-78200990D01*
X101084178Y-78199825D01*
X101084374Y-78197835D01*
X101086000Y-78197000D01*
X101168097Y-78197000D01*
X101168293Y-78197010D01*
G37*
M02*
