G04 #@! TF.GenerationSoftware,KiCad,Pcbnew,5.1.8*
G04 #@! TF.CreationDate,2020-11-30T22:47:38+01:00*
G04 #@! TF.ProjectId,ml_dev_board,6d6c5f64-6576-45f6-926f-6172642e6b69,rev?*
G04 #@! TF.SameCoordinates,Original*
G04 #@! TF.FileFunction,Legend,Bot*
G04 #@! TF.FilePolarity,Positive*
%FSLAX46Y46*%
G04 Gerber Fmt 4.6, Leading zero omitted, Abs format (unit mm)*
G04 Created by KiCad (PCBNEW 5.1.8) date 2020-11-30 22:47:38*
%MOMM*%
%LPD*%
G01*
G04 APERTURE LIST*
%ADD10C,0.010000*%
G04 APERTURE END LIST*
D10*
G36*
X120250236Y-66981428D02*
G01*
X119212951Y-67292151D01*
X118250552Y-67847360D01*
X117555926Y-68461462D01*
X116984752Y-69115234D01*
X116597084Y-69718259D01*
X116361123Y-70351461D01*
X116245073Y-71095763D01*
X116216986Y-71869126D01*
X116221184Y-72504640D01*
X116250591Y-72960106D01*
X116322180Y-73322718D01*
X116452924Y-73679670D01*
X116651491Y-74101300D01*
X117270539Y-75076708D01*
X118058925Y-75850445D01*
X118996679Y-76409650D01*
X120063834Y-76741459D01*
X120891052Y-76832015D01*
X121458646Y-76835878D01*
X121973298Y-76813546D01*
X122335334Y-76769753D01*
X122369548Y-76761824D01*
X123220132Y-76427044D01*
X124060672Y-75891003D01*
X124818928Y-75212474D01*
X125422661Y-74450231D01*
X125609423Y-74125850D01*
X125986184Y-73108420D01*
X126121773Y-72050681D01*
X126029272Y-70994173D01*
X125721763Y-69980439D01*
X125212329Y-69051019D01*
X124514052Y-68247455D01*
X123640013Y-67611289D01*
X123540798Y-67557072D01*
X122441219Y-67109800D01*
X121335345Y-66919282D01*
X120250236Y-66981428D01*
G37*
X120250236Y-66981428D02*
X119212951Y-67292151D01*
X118250552Y-67847360D01*
X117555926Y-68461462D01*
X116984752Y-69115234D01*
X116597084Y-69718259D01*
X116361123Y-70351461D01*
X116245073Y-71095763D01*
X116216986Y-71869126D01*
X116221184Y-72504640D01*
X116250591Y-72960106D01*
X116322180Y-73322718D01*
X116452924Y-73679670D01*
X116651491Y-74101300D01*
X117270539Y-75076708D01*
X118058925Y-75850445D01*
X118996679Y-76409650D01*
X120063834Y-76741459D01*
X120891052Y-76832015D01*
X121458646Y-76835878D01*
X121973298Y-76813546D01*
X122335334Y-76769753D01*
X122369548Y-76761824D01*
X123220132Y-76427044D01*
X124060672Y-75891003D01*
X124818928Y-75212474D01*
X125422661Y-74450231D01*
X125609423Y-74125850D01*
X125986184Y-73108420D01*
X126121773Y-72050681D01*
X126029272Y-70994173D01*
X125721763Y-69980439D01*
X125212329Y-69051019D01*
X124514052Y-68247455D01*
X123640013Y-67611289D01*
X123540798Y-67557072D01*
X122441219Y-67109800D01*
X121335345Y-66919282D01*
X120250236Y-66981428D01*
G36*
X131483549Y-72802105D02*
G01*
X131308891Y-73946280D01*
X131031120Y-74993649D01*
X130615896Y-76060950D01*
X130368717Y-76591906D01*
X130078389Y-77160362D01*
X129795133Y-77629833D01*
X129467372Y-78069457D01*
X129043529Y-78548375D01*
X128472027Y-79135724D01*
X128468218Y-79139544D01*
X127851585Y-79740137D01*
X127337435Y-80191058D01*
X126855150Y-80546404D01*
X126334111Y-80860269D01*
X125971052Y-81052438D01*
X124894914Y-81555699D01*
X123919527Y-81900789D01*
X122953209Y-82115161D01*
X122094210Y-82213346D01*
X121024736Y-82293684D01*
X120987813Y-95795789D01*
X120982137Y-98329145D01*
X120979720Y-100601009D01*
X120980607Y-102617239D01*
X120984842Y-104383693D01*
X120992470Y-105906227D01*
X121003537Y-107190700D01*
X121018087Y-108242970D01*
X121036165Y-109068893D01*
X121057815Y-109674327D01*
X121083084Y-110065130D01*
X121097959Y-110187242D01*
X121421692Y-111392403D01*
X121959923Y-112465601D01*
X122689979Y-113383677D01*
X123589192Y-114123475D01*
X124634890Y-114661835D01*
X125782040Y-114972016D01*
X126009289Y-114987152D01*
X126487751Y-115001311D01*
X127201401Y-115014495D01*
X128134216Y-115026708D01*
X129270174Y-115037951D01*
X130593252Y-115048226D01*
X132087426Y-115057538D01*
X133736672Y-115065887D01*
X135524969Y-115073277D01*
X137436293Y-115079710D01*
X139454621Y-115085189D01*
X141563929Y-115089716D01*
X143748195Y-115093293D01*
X145991395Y-115095924D01*
X148277507Y-115097610D01*
X150590507Y-115098354D01*
X152914372Y-115098159D01*
X155233079Y-115097028D01*
X157530605Y-115094962D01*
X159790927Y-115091965D01*
X161998021Y-115088038D01*
X164135865Y-115083185D01*
X166188435Y-115077407D01*
X168139709Y-115070708D01*
X169973663Y-115063090D01*
X171674274Y-115054555D01*
X173225519Y-115045106D01*
X174611375Y-115034746D01*
X175815819Y-115023476D01*
X176822827Y-115011300D01*
X177616377Y-114998221D01*
X178180446Y-114984239D01*
X178499009Y-114969359D01*
X178550925Y-114963713D01*
X179628634Y-114654971D01*
X180643657Y-114117857D01*
X181544013Y-113391153D01*
X182277719Y-112513640D01*
X182616513Y-111930500D01*
X183054210Y-111041411D01*
X183054210Y-93793337D01*
X183054567Y-91234693D01*
X183055148Y-88929224D01*
X183055218Y-86862741D01*
X183054043Y-85021051D01*
X183050889Y-83389964D01*
X183045019Y-81955290D01*
X183035701Y-80702836D01*
X183022199Y-79618413D01*
X183003778Y-78687829D01*
X182979704Y-77896893D01*
X182949243Y-77231415D01*
X182911659Y-76677203D01*
X182878611Y-76344736D01*
X177640000Y-76344736D01*
X177640000Y-110434210D01*
X170020000Y-110434210D01*
X170020000Y-99311684D01*
X170018592Y-97429686D01*
X170014473Y-95682997D01*
X170007802Y-94086075D01*
X169998736Y-92653377D01*
X169987432Y-91399363D01*
X169974048Y-90338490D01*
X169958742Y-89485217D01*
X169941672Y-88854000D01*
X169922995Y-88459300D01*
X169902869Y-88315573D01*
X169900076Y-88316158D01*
X169865456Y-88383071D01*
X169823165Y-88528922D01*
X169770265Y-88772292D01*
X169703821Y-89131761D01*
X169620894Y-89625908D01*
X169518548Y-90273316D01*
X169393845Y-91092563D01*
X169243848Y-92102230D01*
X169065621Y-93320898D01*
X168856225Y-94767146D01*
X168612724Y-96459556D01*
X168612056Y-96464210D01*
X168464452Y-97486970D01*
X168288396Y-98698167D01*
X168095010Y-100021812D01*
X167895419Y-101381918D01*
X167700745Y-102702498D01*
X167545538Y-103750000D01*
X167385029Y-104835621D01*
X167229159Y-105900051D01*
X167084631Y-106896742D01*
X166958151Y-107779148D01*
X166856421Y-108500723D01*
X166786147Y-109014921D01*
X166775344Y-109097368D01*
X166611052Y-110367368D01*
X163903947Y-110403557D01*
X163045245Y-110409343D01*
X162310384Y-110403123D01*
X161734309Y-110385988D01*
X161351962Y-110359026D01*
X161198289Y-110323329D01*
X161196842Y-110319146D01*
X161178441Y-110156198D01*
X161127017Y-109769512D01*
X161048237Y-109199904D01*
X160947766Y-108488188D01*
X160831273Y-107675180D01*
X160792762Y-107408746D01*
X160646830Y-106382987D01*
X160492527Y-105267079D01*
X160342310Y-104153221D01*
X160208639Y-103133616D01*
X160117730Y-102413158D01*
X160022777Y-101659845D01*
X159898956Y-100707186D01*
X159754980Y-99620546D01*
X159599564Y-98465292D01*
X159441419Y-97306790D01*
X159324742Y-96464210D01*
X159170216Y-95346952D01*
X159011553Y-94183251D01*
X158857503Y-93038479D01*
X158716819Y-91978004D01*
X158598253Y-91067196D01*
X158528314Y-90515263D01*
X158406334Y-89550544D01*
X158309010Y-88823520D01*
X158231407Y-88306162D01*
X158168585Y-87970440D01*
X158115608Y-87788323D01*
X158067538Y-87731781D01*
X158040362Y-87745076D01*
X158027877Y-87887752D01*
X158016570Y-88273663D01*
X158006619Y-88878675D01*
X157998201Y-89678657D01*
X157991493Y-90649477D01*
X157986672Y-91767001D01*
X157983917Y-93007099D01*
X157983403Y-94345637D01*
X157984505Y-95347429D01*
X157985240Y-96894122D01*
X157982478Y-98482054D01*
X157976518Y-100068493D01*
X157967660Y-101610711D01*
X157956204Y-103065977D01*
X157942449Y-104391560D01*
X157926696Y-105544731D01*
X157909244Y-106482759D01*
X157905166Y-106657631D01*
X157812953Y-110434210D01*
X150368421Y-110434210D01*
X150368421Y-76344736D01*
X145956842Y-76344736D01*
X145956842Y-110434210D01*
X126305263Y-110434210D01*
X126305263Y-103752999D01*
X131752894Y-103718078D01*
X137200526Y-103683158D01*
X137234577Y-90013947D01*
X137268629Y-76344736D01*
X145956842Y-76344736D01*
X150368421Y-76344736D01*
X161726485Y-76344736D01*
X161792671Y-76645526D01*
X161829070Y-76871971D01*
X161889300Y-77315050D01*
X161967093Y-77925726D01*
X162056184Y-78654964D01*
X162138583Y-79352631D01*
X162234279Y-80154349D01*
X162357589Y-81154619D01*
X162500101Y-82287065D01*
X162653400Y-83485310D01*
X162809075Y-84682976D01*
X162934960Y-85635789D01*
X163076532Y-86701991D01*
X163214956Y-87751606D01*
X163343809Y-88735401D01*
X163456667Y-89604144D01*
X163547110Y-90308603D01*
X163608714Y-90799546D01*
X163610732Y-90816052D01*
X163689252Y-91368272D01*
X163772411Y-91804510D01*
X163848153Y-92067890D01*
X163887032Y-92119473D01*
X164003130Y-92068728D01*
X164004210Y-92060772D01*
X164022685Y-91908778D01*
X164075362Y-91520905D01*
X164158123Y-90925878D01*
X164266848Y-90152425D01*
X164397420Y-89229273D01*
X164545720Y-88185150D01*
X164707627Y-87048783D01*
X164879024Y-85848899D01*
X165055792Y-84614225D01*
X165233811Y-83373490D01*
X165408963Y-82155419D01*
X165577129Y-80988741D01*
X165734190Y-79902183D01*
X165876027Y-78924472D01*
X165998521Y-78084335D01*
X166097554Y-77410499D01*
X166169006Y-76931693D01*
X166208759Y-76676643D01*
X166214428Y-76645526D01*
X166281936Y-76344736D01*
X177640000Y-76344736D01*
X182878611Y-76344736D01*
X182866218Y-76220067D01*
X182812186Y-75845815D01*
X182748827Y-75540258D01*
X182675407Y-75289202D01*
X182591192Y-75078459D01*
X182495447Y-74893837D01*
X182387436Y-74721145D01*
X182266427Y-74546191D01*
X182131683Y-74354786D01*
X182041026Y-74221784D01*
X181346850Y-73392098D01*
X180484224Y-72691575D01*
X179533253Y-72182751D01*
X179331867Y-72106819D01*
X179235850Y-72076695D01*
X179120228Y-72049189D01*
X178973051Y-72024184D01*
X178782370Y-72001560D01*
X178536238Y-71981200D01*
X178222704Y-71962984D01*
X177829819Y-71946793D01*
X177345635Y-71932509D01*
X176758203Y-71920014D01*
X176055574Y-71909188D01*
X175225799Y-71899914D01*
X174256929Y-71892071D01*
X173137015Y-71885543D01*
X171854108Y-71880209D01*
X170396259Y-71875952D01*
X168751520Y-71872652D01*
X166907941Y-71870192D01*
X164853573Y-71868451D01*
X162576467Y-71867313D01*
X160064675Y-71866657D01*
X157306248Y-71866366D01*
X155114210Y-71866315D01*
X131585789Y-71866315D01*
X131483549Y-72802105D01*
G37*
X131483549Y-72802105D02*
X131308891Y-73946280D01*
X131031120Y-74993649D01*
X130615896Y-76060950D01*
X130368717Y-76591906D01*
X130078389Y-77160362D01*
X129795133Y-77629833D01*
X129467372Y-78069457D01*
X129043529Y-78548375D01*
X128472027Y-79135724D01*
X128468218Y-79139544D01*
X127851585Y-79740137D01*
X127337435Y-80191058D01*
X126855150Y-80546404D01*
X126334111Y-80860269D01*
X125971052Y-81052438D01*
X124894914Y-81555699D01*
X123919527Y-81900789D01*
X122953209Y-82115161D01*
X122094210Y-82213346D01*
X121024736Y-82293684D01*
X120987813Y-95795789D01*
X120982137Y-98329145D01*
X120979720Y-100601009D01*
X120980607Y-102617239D01*
X120984842Y-104383693D01*
X120992470Y-105906227D01*
X121003537Y-107190700D01*
X121018087Y-108242970D01*
X121036165Y-109068893D01*
X121057815Y-109674327D01*
X121083084Y-110065130D01*
X121097959Y-110187242D01*
X121421692Y-111392403D01*
X121959923Y-112465601D01*
X122689979Y-113383677D01*
X123589192Y-114123475D01*
X124634890Y-114661835D01*
X125782040Y-114972016D01*
X126009289Y-114987152D01*
X126487751Y-115001311D01*
X127201401Y-115014495D01*
X128134216Y-115026708D01*
X129270174Y-115037951D01*
X130593252Y-115048226D01*
X132087426Y-115057538D01*
X133736672Y-115065887D01*
X135524969Y-115073277D01*
X137436293Y-115079710D01*
X139454621Y-115085189D01*
X141563929Y-115089716D01*
X143748195Y-115093293D01*
X145991395Y-115095924D01*
X148277507Y-115097610D01*
X150590507Y-115098354D01*
X152914372Y-115098159D01*
X155233079Y-115097028D01*
X157530605Y-115094962D01*
X159790927Y-115091965D01*
X161998021Y-115088038D01*
X164135865Y-115083185D01*
X166188435Y-115077407D01*
X168139709Y-115070708D01*
X169973663Y-115063090D01*
X171674274Y-115054555D01*
X173225519Y-115045106D01*
X174611375Y-115034746D01*
X175815819Y-115023476D01*
X176822827Y-115011300D01*
X177616377Y-114998221D01*
X178180446Y-114984239D01*
X178499009Y-114969359D01*
X178550925Y-114963713D01*
X179628634Y-114654971D01*
X180643657Y-114117857D01*
X181544013Y-113391153D01*
X182277719Y-112513640D01*
X182616513Y-111930500D01*
X183054210Y-111041411D01*
X183054210Y-93793337D01*
X183054567Y-91234693D01*
X183055148Y-88929224D01*
X183055218Y-86862741D01*
X183054043Y-85021051D01*
X183050889Y-83389964D01*
X183045019Y-81955290D01*
X183035701Y-80702836D01*
X183022199Y-79618413D01*
X183003778Y-78687829D01*
X182979704Y-77896893D01*
X182949243Y-77231415D01*
X182911659Y-76677203D01*
X182878611Y-76344736D01*
X177640000Y-76344736D01*
X177640000Y-110434210D01*
X170020000Y-110434210D01*
X170020000Y-99311684D01*
X170018592Y-97429686D01*
X170014473Y-95682997D01*
X170007802Y-94086075D01*
X169998736Y-92653377D01*
X169987432Y-91399363D01*
X169974048Y-90338490D01*
X169958742Y-89485217D01*
X169941672Y-88854000D01*
X169922995Y-88459300D01*
X169902869Y-88315573D01*
X169900076Y-88316158D01*
X169865456Y-88383071D01*
X169823165Y-88528922D01*
X169770265Y-88772292D01*
X169703821Y-89131761D01*
X169620894Y-89625908D01*
X169518548Y-90273316D01*
X169393845Y-91092563D01*
X169243848Y-92102230D01*
X169065621Y-93320898D01*
X168856225Y-94767146D01*
X168612724Y-96459556D01*
X168612056Y-96464210D01*
X168464452Y-97486970D01*
X168288396Y-98698167D01*
X168095010Y-100021812D01*
X167895419Y-101381918D01*
X167700745Y-102702498D01*
X167545538Y-103750000D01*
X167385029Y-104835621D01*
X167229159Y-105900051D01*
X167084631Y-106896742D01*
X166958151Y-107779148D01*
X166856421Y-108500723D01*
X166786147Y-109014921D01*
X166775344Y-109097368D01*
X166611052Y-110367368D01*
X163903947Y-110403557D01*
X163045245Y-110409343D01*
X162310384Y-110403123D01*
X161734309Y-110385988D01*
X161351962Y-110359026D01*
X161198289Y-110323329D01*
X161196842Y-110319146D01*
X161178441Y-110156198D01*
X161127017Y-109769512D01*
X161048237Y-109199904D01*
X160947766Y-108488188D01*
X160831273Y-107675180D01*
X160792762Y-107408746D01*
X160646830Y-106382987D01*
X160492527Y-105267079D01*
X160342310Y-104153221D01*
X160208639Y-103133616D01*
X160117730Y-102413158D01*
X160022777Y-101659845D01*
X159898956Y-100707186D01*
X159754980Y-99620546D01*
X159599564Y-98465292D01*
X159441419Y-97306790D01*
X159324742Y-96464210D01*
X159170216Y-95346952D01*
X159011553Y-94183251D01*
X158857503Y-93038479D01*
X158716819Y-91978004D01*
X158598253Y-91067196D01*
X158528314Y-90515263D01*
X158406334Y-89550544D01*
X158309010Y-88823520D01*
X158231407Y-88306162D01*
X158168585Y-87970440D01*
X158115608Y-87788323D01*
X158067538Y-87731781D01*
X158040362Y-87745076D01*
X158027877Y-87887752D01*
X158016570Y-88273663D01*
X158006619Y-88878675D01*
X157998201Y-89678657D01*
X157991493Y-90649477D01*
X157986672Y-91767001D01*
X157983917Y-93007099D01*
X157983403Y-94345637D01*
X157984505Y-95347429D01*
X157985240Y-96894122D01*
X157982478Y-98482054D01*
X157976518Y-100068493D01*
X157967660Y-101610711D01*
X157956204Y-103065977D01*
X157942449Y-104391560D01*
X157926696Y-105544731D01*
X157909244Y-106482759D01*
X157905166Y-106657631D01*
X157812953Y-110434210D01*
X150368421Y-110434210D01*
X150368421Y-76344736D01*
X145956842Y-76344736D01*
X145956842Y-110434210D01*
X126305263Y-110434210D01*
X126305263Y-103752999D01*
X131752894Y-103718078D01*
X137200526Y-103683158D01*
X137234577Y-90013947D01*
X137268629Y-76344736D01*
X145956842Y-76344736D01*
X150368421Y-76344736D01*
X161726485Y-76344736D01*
X161792671Y-76645526D01*
X161829070Y-76871971D01*
X161889300Y-77315050D01*
X161967093Y-77925726D01*
X162056184Y-78654964D01*
X162138583Y-79352631D01*
X162234279Y-80154349D01*
X162357589Y-81154619D01*
X162500101Y-82287065D01*
X162653400Y-83485310D01*
X162809075Y-84682976D01*
X162934960Y-85635789D01*
X163076532Y-86701991D01*
X163214956Y-87751606D01*
X163343809Y-88735401D01*
X163456667Y-89604144D01*
X163547110Y-90308603D01*
X163608714Y-90799546D01*
X163610732Y-90816052D01*
X163689252Y-91368272D01*
X163772411Y-91804510D01*
X163848153Y-92067890D01*
X163887032Y-92119473D01*
X164003130Y-92068728D01*
X164004210Y-92060772D01*
X164022685Y-91908778D01*
X164075362Y-91520905D01*
X164158123Y-90925878D01*
X164266848Y-90152425D01*
X164397420Y-89229273D01*
X164545720Y-88185150D01*
X164707627Y-87048783D01*
X164879024Y-85848899D01*
X165055792Y-84614225D01*
X165233811Y-83373490D01*
X165408963Y-82155419D01*
X165577129Y-80988741D01*
X165734190Y-79902183D01*
X165876027Y-78924472D01*
X165998521Y-78084335D01*
X166097554Y-77410499D01*
X166169006Y-76931693D01*
X166208759Y-76676643D01*
X166214428Y-76645526D01*
X166281936Y-76344736D01*
X177640000Y-76344736D01*
X182878611Y-76344736D01*
X182866218Y-76220067D01*
X182812186Y-75845815D01*
X182748827Y-75540258D01*
X182675407Y-75289202D01*
X182591192Y-75078459D01*
X182495447Y-74893837D01*
X182387436Y-74721145D01*
X182266427Y-74546191D01*
X182131683Y-74354786D01*
X182041026Y-74221784D01*
X181346850Y-73392098D01*
X180484224Y-72691575D01*
X179533253Y-72182751D01*
X179331867Y-72106819D01*
X179235850Y-72076695D01*
X179120228Y-72049189D01*
X178973051Y-72024184D01*
X178782370Y-72001560D01*
X178536238Y-71981200D01*
X178222704Y-71962984D01*
X177829819Y-71946793D01*
X177345635Y-71932509D01*
X176758203Y-71920014D01*
X176055574Y-71909188D01*
X175225799Y-71899914D01*
X174256929Y-71892071D01*
X173137015Y-71885543D01*
X171854108Y-71880209D01*
X170396259Y-71875952D01*
X168751520Y-71872652D01*
X166907941Y-71870192D01*
X164853573Y-71868451D01*
X162576467Y-71867313D01*
X160064675Y-71866657D01*
X157306248Y-71866366D01*
X155114210Y-71866315D01*
X131585789Y-71866315D01*
X131483549Y-72802105D01*
M02*
