G04 #@! TF.GenerationSoftware,KiCad,Pcbnew,5.1.8*
G04 #@! TF.CreationDate,2020-11-30T22:47:42+01:00*
G04 #@! TF.ProjectId,ml_dev_board,6d6c5f64-6576-45f6-926f-6172642e6b69,rev?*
G04 #@! TF.SameCoordinates,Original*
G04 #@! TF.FileFunction,Profile,NP*
%FSLAX46Y46*%
G04 Gerber Fmt 4.6, Leading zero omitted, Abs format (unit mm)*
G04 Created by KiCad (PCBNEW 5.1.8) date 2020-11-30 22:47:42*
%MOMM*%
%LPD*%
G01*
G04 APERTURE LIST*
G04 #@! TA.AperFunction,Profile*
%ADD10C,0.200000*%
G04 #@! TD*
G04 APERTURE END LIST*
D10*
X88202738Y-71845450D02*
X89207652Y-69832560D01*
X184364309Y-66276788D02*
X184543303Y-66423626D01*
X184543303Y-66423626D02*
X184719291Y-66573904D01*
X184719291Y-66573904D02*
X184892073Y-66727636D01*
X184892073Y-66727636D02*
X185061452Y-66884838D01*
X185061452Y-66884838D02*
X185227229Y-67045524D01*
X185227229Y-67045524D02*
X185389207Y-67209710D01*
X185389207Y-67209710D02*
X185547186Y-67377411D01*
X185547186Y-67377411D02*
X185700970Y-67548643D01*
X185700970Y-67548643D02*
X185850360Y-67723419D01*
X185850360Y-67723419D02*
X185995157Y-67901756D01*
X185995157Y-67901756D02*
X186089040Y-68022633D01*
X187384320Y-70099780D02*
X188202750Y-71845450D01*
X89207652Y-69832560D02*
X89338822Y-69621108D01*
X89338822Y-69621108D02*
X89470314Y-69409939D01*
X89470314Y-69409939D02*
X89602446Y-69199335D01*
X89602446Y-69199335D02*
X89735541Y-68989576D01*
X89735541Y-68989576D02*
X89869918Y-68780947D01*
X89869918Y-68780947D02*
X90005899Y-68573727D01*
X90005899Y-68573727D02*
X90143803Y-68368201D01*
X90143803Y-68368201D02*
X90283953Y-68164649D01*
X90283953Y-68164649D02*
X90426667Y-67963354D01*
X90426667Y-67963354D02*
X90572268Y-67764598D01*
X90572268Y-67764598D02*
X90721075Y-67568664D01*
X90721075Y-67568664D02*
X90873409Y-67375832D01*
X90873409Y-67375832D02*
X91029591Y-67186386D01*
X91029591Y-67186386D02*
X91189942Y-67000608D01*
X91189942Y-67000608D02*
X91354782Y-66818779D01*
X91354782Y-66818779D02*
X91524433Y-66641182D01*
X96093856Y-120650000D02*
G75*
G02*
X88202738Y-112758882I0J7891118D01*
G01*
X88202738Y-112758882D02*
X88202738Y-71845450D01*
X188202750Y-71845450D02*
X188202750Y-113880310D01*
X188202750Y-113880310D02*
G75*
G02*
X181433060Y-120650000I-6769690J0D01*
G01*
X96093856Y-120650000D02*
X181433060Y-120650000D01*
X124071161Y-47650936D02*
X124332217Y-47604661D01*
X124332217Y-47604661D02*
X124594563Y-47566801D01*
X124594563Y-47566801D02*
X124858045Y-47536477D01*
X124858045Y-47536477D02*
X125122511Y-47512812D01*
X125122511Y-47512812D02*
X125387809Y-47494929D01*
X125387809Y-47494929D02*
X125653786Y-47481949D01*
X125653786Y-47481949D02*
X125920289Y-47472995D01*
X125920289Y-47472995D02*
X126187166Y-47467189D01*
X126187166Y-47467189D02*
X126454264Y-47463653D01*
X126454264Y-47463653D02*
X126721430Y-47461510D01*
X126721430Y-47461510D02*
X126899504Y-47460422D01*
X91524433Y-66641182D02*
X91701040Y-66466207D01*
X91701040Y-66466207D02*
X91882667Y-66295865D01*
X91882667Y-66295865D02*
X92069090Y-66130179D01*
X92069090Y-66130179D02*
X92260086Y-65969168D01*
X92260086Y-65969168D02*
X92455432Y-65812855D01*
X92455432Y-65812855D02*
X92654904Y-65661260D01*
X92654904Y-65661260D02*
X92858280Y-65514406D01*
X92858280Y-65514406D02*
X93065337Y-65372313D01*
X93065337Y-65372313D02*
X93275851Y-65235003D01*
X93275851Y-65235003D02*
X93489600Y-65102497D01*
X93489600Y-65102497D02*
X93706359Y-64974816D01*
X93706359Y-64974816D02*
X93925907Y-64851982D01*
X93925907Y-64851982D02*
X94148020Y-64734017D01*
X94148020Y-64734017D02*
X94372476Y-64620941D01*
X94372476Y-64620941D02*
X94599050Y-64512775D01*
X94599050Y-64512775D02*
X94827520Y-64409543D01*
X120107120Y-49475522D02*
X120313676Y-49326337D01*
X120313676Y-49326337D02*
X120523280Y-49181704D01*
X120523280Y-49181704D02*
X120735887Y-49041764D01*
X120735887Y-49041764D02*
X120951453Y-48906663D01*
X120951453Y-48906663D02*
X121169936Y-48776542D01*
X121169936Y-48776542D02*
X121391290Y-48651546D01*
X121391290Y-48651546D02*
X121615472Y-48531817D01*
X121615472Y-48531817D02*
X121842438Y-48417498D01*
X121842438Y-48417498D02*
X122072145Y-48308734D01*
X122072145Y-48308734D02*
X122304549Y-48205666D01*
X122304549Y-48205666D02*
X122460962Y-48140191D01*
X116431178Y-53867130D02*
X116576531Y-53630063D01*
X116576531Y-53630063D02*
X116721520Y-53393267D01*
X116721520Y-53393267D02*
X116866816Y-53157176D01*
X116866816Y-53157176D02*
X117013092Y-52922222D01*
X117013092Y-52922222D02*
X117161023Y-52688840D01*
X117161023Y-52688840D02*
X117311281Y-52457463D01*
X117311281Y-52457463D02*
X117464539Y-52228523D01*
X117464539Y-52228523D02*
X117621470Y-52002456D01*
X117621470Y-52002456D02*
X117782747Y-51779694D01*
X117782747Y-51779694D02*
X117949045Y-51560670D01*
X117949045Y-51560670D02*
X118063031Y-51416946D01*
X112919173Y-58386217D02*
X113181951Y-58146912D01*
X113181951Y-58146912D02*
X113437141Y-57899382D01*
X113437141Y-57899382D02*
X113685132Y-57644156D01*
X113685132Y-57644156D02*
X113926314Y-57381764D01*
X113926314Y-57381764D02*
X114161076Y-57112737D01*
X114161076Y-57112737D02*
X114389808Y-56837604D01*
X114389808Y-56837604D02*
X114612899Y-56556897D01*
X114612899Y-56556897D02*
X114830740Y-56271144D01*
X114830740Y-56271144D02*
X115043719Y-55980877D01*
X115043719Y-55980877D02*
X115252226Y-55686625D01*
X115252226Y-55686625D02*
X115456650Y-55388919D01*
X115456650Y-55388919D02*
X115657383Y-55088289D01*
X115657383Y-55088289D02*
X115854812Y-54785264D01*
X115854812Y-54785264D02*
X116049328Y-54480376D01*
X116049328Y-54480376D02*
X116241320Y-54174155D01*
X116241320Y-54174155D02*
X116431178Y-53867130D01*
X107445659Y-61320571D02*
X107817410Y-61194773D01*
X107817410Y-61194773D02*
X108187664Y-61062483D01*
X108187664Y-61062483D02*
X108555894Y-60923446D01*
X108555894Y-60923446D02*
X108921574Y-60777409D01*
X108921574Y-60777409D02*
X109284176Y-60624116D01*
X109284176Y-60624116D02*
X109643176Y-60463312D01*
X109643176Y-60463312D02*
X109998045Y-60294744D01*
X109998045Y-60294744D02*
X110348259Y-60118157D01*
X110348259Y-60118157D02*
X110693290Y-59933295D01*
X110693290Y-59933295D02*
X111032612Y-59739906D01*
X111032612Y-59739906D02*
X111365698Y-59537733D01*
X111365698Y-59537733D02*
X111692022Y-59326523D01*
X111692022Y-59326523D02*
X112011058Y-59106021D01*
X112011058Y-59106021D02*
X112322280Y-58875972D01*
X112322280Y-58875972D02*
X112625160Y-58636122D01*
X112625160Y-58636122D02*
X112919173Y-58386217D01*
X133031996Y-47428140D02*
X133396709Y-47428038D01*
X133396709Y-47428038D02*
X133761488Y-47428289D01*
X133761488Y-47428289D02*
X134126334Y-47428888D01*
X134126334Y-47428888D02*
X134491252Y-47429827D01*
X134491252Y-47429827D02*
X134856245Y-47431101D01*
X134856245Y-47431101D02*
X135221317Y-47432702D01*
X135221317Y-47432702D02*
X135586471Y-47434625D01*
X135586471Y-47434625D02*
X135951712Y-47436863D01*
X135951712Y-47436863D02*
X136317042Y-47439410D01*
X136317042Y-47439410D02*
X136682465Y-47442259D01*
X136682465Y-47442259D02*
X137047986Y-47445403D01*
X137047986Y-47445403D02*
X137413607Y-47448838D01*
X137413607Y-47448838D02*
X137779332Y-47452555D01*
X137779332Y-47452555D02*
X138145165Y-47456549D01*
X138145165Y-47456549D02*
X138511109Y-47460813D01*
X138511109Y-47460813D02*
X138877169Y-47465342D01*
X146344665Y-49148397D02*
X146554353Y-49286545D01*
X146554353Y-49286545D02*
X146759846Y-49431117D01*
X146759846Y-49431117D02*
X146961001Y-49581879D01*
X146961001Y-49581879D02*
X147157673Y-49738600D01*
X147157673Y-49738600D02*
X147349717Y-49901046D01*
X147349717Y-49901046D02*
X147536988Y-50068984D01*
X147536988Y-50068984D02*
X147719343Y-50242181D01*
X147719343Y-50242181D02*
X147896637Y-50420406D01*
X147896637Y-50420406D02*
X148068725Y-50603424D01*
X148068725Y-50603424D02*
X148235463Y-50791004D01*
X148235463Y-50791004D02*
X148343578Y-50918477D01*
X122460962Y-48140191D02*
X122657105Y-48062466D01*
X122657105Y-48062466D02*
X122854940Y-47989039D01*
X122854940Y-47989039D02*
X123054353Y-47920129D01*
X123054353Y-47920129D02*
X123255233Y-47855952D01*
X123255233Y-47855952D02*
X123457466Y-47796727D01*
X123457466Y-47796727D02*
X123660940Y-47742670D01*
X123660940Y-47742670D02*
X123865542Y-47694001D01*
X123865542Y-47694001D02*
X124071161Y-47650936D01*
X99033213Y-63194191D02*
X99297743Y-63141172D01*
X99297743Y-63141172D02*
X99562340Y-63089056D01*
X99562340Y-63089056D02*
X99826986Y-63037718D01*
X99826986Y-63037718D02*
X100091663Y-62987030D01*
X100091663Y-62987030D02*
X100356356Y-62936868D01*
X100356356Y-62936868D02*
X100621045Y-62887105D01*
X100621045Y-62887105D02*
X100885715Y-62837616D01*
X100885715Y-62837616D02*
X101150348Y-62788273D01*
X101150348Y-62788273D02*
X101414927Y-62738952D01*
X101414927Y-62738952D02*
X101679435Y-62689525D01*
X101679435Y-62689525D02*
X101943853Y-62639868D01*
X101943853Y-62639868D02*
X102208166Y-62589854D01*
X102208166Y-62589854D02*
X102472356Y-62539357D01*
X102472356Y-62539357D02*
X102736405Y-62488251D01*
X102736405Y-62488251D02*
X103000296Y-62436411D01*
X103000296Y-62436411D02*
X103264013Y-62383709D01*
X103264013Y-62383709D02*
X103527538Y-62330020D01*
X103527538Y-62330020D02*
X103790854Y-62275219D01*
X103790854Y-62275219D02*
X104053943Y-62219178D01*
X104053943Y-62219178D02*
X104316789Y-62161773D01*
X104316789Y-62161773D02*
X104579373Y-62102876D01*
X104579373Y-62102876D02*
X104841680Y-62042363D01*
X104841680Y-62042363D02*
X105103691Y-61980106D01*
X105103691Y-61980106D02*
X105365389Y-61915981D01*
X105365389Y-61915981D02*
X105626758Y-61849860D01*
X105626758Y-61849860D02*
X105887780Y-61781619D01*
X105887780Y-61781619D02*
X106148437Y-61711130D01*
X106148437Y-61711130D02*
X106408713Y-61638268D01*
X106408713Y-61638268D02*
X106668591Y-61562907D01*
X106668591Y-61562907D02*
X106928052Y-61484922D01*
X106928052Y-61484922D02*
X107187081Y-61404185D01*
X107187081Y-61404185D02*
X107445659Y-61320571D01*
X143742780Y-48008971D02*
X143998886Y-48085479D01*
X143998886Y-48085479D02*
X144253353Y-48167721D01*
X144253353Y-48167721D02*
X144505874Y-48255884D01*
X144505874Y-48255884D02*
X144756146Y-48350152D01*
X144756146Y-48350152D02*
X145003864Y-48450713D01*
X145003864Y-48450713D02*
X145248724Y-48557752D01*
X145248724Y-48557752D02*
X145490421Y-48671456D01*
X145490421Y-48671456D02*
X145728651Y-48792010D01*
X145728651Y-48792010D02*
X145963109Y-48919602D01*
X145963109Y-48919602D02*
X146193491Y-49054416D01*
X146193491Y-49054416D02*
X146344665Y-49148397D01*
X118063031Y-51416946D02*
X118231457Y-51213944D01*
X118231457Y-51213944D02*
X118405301Y-51015098D01*
X118405301Y-51015098D02*
X118584351Y-50820473D01*
X118584351Y-50820473D02*
X118768392Y-50630134D01*
X118768392Y-50630134D02*
X118957210Y-50444145D01*
X118957210Y-50444145D02*
X119150593Y-50262572D01*
X119150593Y-50262572D02*
X119348326Y-50085480D01*
X119348326Y-50085480D02*
X119550197Y-49912932D01*
X119550197Y-49912932D02*
X119755991Y-49744995D01*
X119755991Y-49744995D02*
X119965495Y-49581733D01*
X119965495Y-49581733D02*
X120107120Y-49475522D01*
X141943038Y-47631616D02*
X142170335Y-47664454D01*
X142170335Y-47664454D02*
X142397100Y-47701372D01*
X142397100Y-47701372D02*
X142623264Y-47742376D01*
X142623264Y-47742376D02*
X142848762Y-47787475D01*
X142848762Y-47787475D02*
X143073529Y-47836676D01*
X143073529Y-47836676D02*
X143297498Y-47889987D01*
X143297498Y-47889987D02*
X143520604Y-47947416D01*
X143520604Y-47947416D02*
X143742780Y-48008971D01*
X94827520Y-64409543D02*
X95080374Y-64301823D01*
X95080374Y-64301823D02*
X95335126Y-64199772D01*
X95335126Y-64199772D02*
X95591654Y-64103080D01*
X95591654Y-64103080D02*
X95849837Y-64011442D01*
X95849837Y-64011442D02*
X96109554Y-63924550D01*
X96109554Y-63924550D02*
X96370686Y-63842098D01*
X96370686Y-63842098D02*
X96633110Y-63763778D01*
X96633110Y-63763778D02*
X96896708Y-63689283D01*
X96896708Y-63689283D02*
X97161357Y-63618306D01*
X97161357Y-63618306D02*
X97426937Y-63550540D01*
X97426937Y-63550540D02*
X97693327Y-63485679D01*
X97693327Y-63485679D02*
X97960408Y-63423415D01*
X97960408Y-63423415D02*
X98228057Y-63363441D01*
X98228057Y-63363441D02*
X98496155Y-63305450D01*
X98496155Y-63305450D02*
X98764580Y-63249136D01*
X98764580Y-63249136D02*
X99033213Y-63194191D01*
X138877169Y-47465342D02*
X139165661Y-47469189D01*
X139165661Y-47469189D02*
X139454151Y-47473779D01*
X139454151Y-47473779D02*
X139742563Y-47479697D01*
X139742563Y-47479697D02*
X140030822Y-47487525D01*
X140030822Y-47487525D02*
X140318852Y-47497847D01*
X140318852Y-47497847D02*
X140606577Y-47511246D01*
X140606577Y-47511246D02*
X140893921Y-47528307D01*
X140893921Y-47528307D02*
X141180809Y-47549612D01*
X141180809Y-47549612D02*
X141467165Y-47575746D01*
X141467165Y-47575746D02*
X141752914Y-47607291D01*
X141752914Y-47607291D02*
X141943038Y-47631616D01*
X126899504Y-47460422D02*
X127284479Y-47458059D01*
X127284479Y-47458059D02*
X127669096Y-47455585D01*
X127669096Y-47455585D02*
X128053383Y-47453032D01*
X128053383Y-47453032D02*
X128437369Y-47450435D01*
X128437369Y-47450435D02*
X128821081Y-47447827D01*
X128821081Y-47447827D02*
X129204549Y-47445243D01*
X129204549Y-47445243D02*
X129587801Y-47442716D01*
X129587801Y-47442716D02*
X129970864Y-47440280D01*
X129970864Y-47440280D02*
X130353767Y-47437969D01*
X130353767Y-47437969D02*
X130736539Y-47435817D01*
X130736539Y-47435817D02*
X131119208Y-47433858D01*
X131119208Y-47433858D02*
X131501802Y-47432125D01*
X131501802Y-47432125D02*
X131884349Y-47430653D01*
X131884349Y-47430653D02*
X132266878Y-47429476D01*
X132266878Y-47429476D02*
X132649418Y-47428626D01*
X132649418Y-47428626D02*
X133031996Y-47428140D01*
X172130600Y-63050701D02*
X172433288Y-63089418D01*
X172433288Y-63089418D02*
X172736002Y-63128281D01*
X172736002Y-63128281D02*
X173038724Y-63167350D01*
X173038724Y-63167350D02*
X173341438Y-63206689D01*
X173341438Y-63206689D02*
X173644128Y-63246360D01*
X173644128Y-63246360D02*
X173946778Y-63286425D01*
X173946778Y-63286425D02*
X174249372Y-63326945D01*
X174249372Y-63326945D02*
X174551894Y-63367985D01*
X174551894Y-63367985D02*
X174854326Y-63409605D01*
X174854326Y-63409605D02*
X175156654Y-63451868D01*
X175156654Y-63451868D02*
X175458861Y-63494837D01*
X175458861Y-63494837D02*
X175760931Y-63538573D01*
X175760931Y-63538573D02*
X176062848Y-63583140D01*
X176062848Y-63583140D02*
X176364596Y-63628598D01*
X176364596Y-63628598D02*
X176666157Y-63675012D01*
X176666157Y-63675012D02*
X176967518Y-63722442D01*
X180309771Y-64368166D02*
X180508051Y-64416751D01*
X180508051Y-64416751D02*
X180705951Y-64467104D01*
X180705951Y-64467104D02*
X180903274Y-64519579D01*
X180903274Y-64519579D02*
X181099824Y-64574528D01*
X181099824Y-64574528D02*
X181295406Y-64632303D01*
X181295406Y-64632303D02*
X181489824Y-64693258D01*
X181489824Y-64693258D02*
X181682882Y-64757745D01*
X181682882Y-64757745D02*
X181874385Y-64826118D01*
X181874385Y-64826118D02*
X182064138Y-64898728D01*
X182064138Y-64898728D02*
X182251943Y-64975929D01*
X182251943Y-64975929D02*
X182375969Y-65030121D01*
X176967518Y-63722442D02*
X177177460Y-63756145D01*
X177177460Y-63756145D02*
X177387291Y-63790438D01*
X177387291Y-63790438D02*
X177597004Y-63825382D01*
X177597004Y-63825382D02*
X177806592Y-63861043D01*
X177806592Y-63861043D02*
X178016051Y-63897485D01*
X178016051Y-63897485D02*
X178225373Y-63934771D01*
X178225373Y-63934771D02*
X178434554Y-63972966D01*
X178434554Y-63972966D02*
X178643585Y-64012133D01*
X178643585Y-64012133D02*
X178852463Y-64052337D01*
X178852463Y-64052337D02*
X179061180Y-64093641D01*
X179061180Y-64093641D02*
X179269730Y-64136110D01*
X179269730Y-64136110D02*
X179478108Y-64179808D01*
X179478108Y-64179808D02*
X179686307Y-64224798D01*
X179686307Y-64224798D02*
X179894321Y-64271145D01*
X179894321Y-64271145D02*
X180102144Y-64318913D01*
X180102144Y-64318913D02*
X180309771Y-64368166D01*
X153308975Y-58300152D02*
X153479026Y-58443506D01*
X153479026Y-58443506D02*
X153653168Y-58581907D01*
X153653168Y-58581907D02*
X153831095Y-58715620D01*
X153831095Y-58715620D02*
X154012505Y-58844909D01*
X154012505Y-58844909D02*
X154197093Y-58970039D01*
X154197093Y-58970039D02*
X154384556Y-59091274D01*
X154384556Y-59091274D02*
X154574591Y-59208879D01*
X154574591Y-59208879D02*
X154766894Y-59323120D01*
X154766894Y-59323120D02*
X154961161Y-59434259D01*
X154961161Y-59434259D02*
X155157088Y-59542563D01*
X155157088Y-59542563D02*
X155288480Y-59613321D01*
X155288480Y-59613321D02*
X155468886Y-59708274D01*
X155468886Y-59708274D02*
X155650234Y-59801213D01*
X155650234Y-59801213D02*
X155832510Y-59892109D01*
X155832510Y-59892109D02*
X156015698Y-59980936D01*
X156015698Y-59980936D02*
X156199781Y-60067667D01*
X156199781Y-60067667D02*
X156384744Y-60152273D01*
X156384744Y-60152273D02*
X156570572Y-60234729D01*
X156570572Y-60234729D02*
X156757249Y-60315006D01*
X156757249Y-60315006D02*
X156944759Y-60393078D01*
X156944759Y-60393078D02*
X157133086Y-60468918D01*
X157133086Y-60468918D02*
X157322215Y-60542497D01*
X157322215Y-60542497D02*
X157512131Y-60613790D01*
X157512131Y-60613790D02*
X157702817Y-60682768D01*
X157702817Y-60682768D02*
X157894259Y-60749405D01*
X157894259Y-60749405D02*
X158086439Y-60813674D01*
X158086439Y-60813674D02*
X158279344Y-60875547D01*
X150062710Y-53605411D02*
X150161877Y-53788776D01*
X150161877Y-53788776D02*
X150260716Y-53972195D01*
X150260716Y-53972195D02*
X150359439Y-54155557D01*
X150359439Y-54155557D02*
X150458260Y-54338752D01*
X150458260Y-54338752D02*
X150557390Y-54521669D01*
X150557390Y-54521669D02*
X150657043Y-54704197D01*
X150657043Y-54704197D02*
X150757431Y-54886228D01*
X150757431Y-54886228D02*
X150858768Y-55067650D01*
X150858768Y-55067650D02*
X150961267Y-55248353D01*
X150961267Y-55248353D02*
X151065139Y-55428228D01*
X151065139Y-55428228D02*
X151170599Y-55607162D01*
X151170599Y-55607162D02*
X151277859Y-55785048D01*
X151277859Y-55785048D02*
X151387131Y-55961773D01*
X151387131Y-55961773D02*
X151498629Y-56137228D01*
X151498629Y-56137228D02*
X151612566Y-56311302D01*
X151612566Y-56311302D02*
X151729154Y-56483886D01*
X182375969Y-65030121D02*
X182575069Y-65122869D01*
X182575069Y-65122869D02*
X182771519Y-65221403D01*
X182771519Y-65221403D02*
X182965326Y-65325446D01*
X182965326Y-65325446D02*
X183156500Y-65434725D01*
X183156500Y-65434725D02*
X183345048Y-65548965D01*
X183345048Y-65548965D02*
X183530980Y-65667892D01*
X183530980Y-65667892D02*
X183714303Y-65791231D01*
X183714303Y-65791231D02*
X183895026Y-65918708D01*
X183895026Y-65918708D02*
X184073158Y-66050048D01*
X184073158Y-66050048D02*
X184248707Y-66184977D01*
X184248707Y-66184977D02*
X184364309Y-66276788D01*
X163031121Y-61845354D02*
X163315830Y-61886647D01*
X163315830Y-61886647D02*
X163600489Y-61927561D01*
X163600489Y-61927561D02*
X163885101Y-61968110D01*
X163885101Y-61968110D02*
X164169667Y-62008307D01*
X164169667Y-62008307D02*
X164454191Y-62048168D01*
X164454191Y-62048168D02*
X164738676Y-62087708D01*
X164738676Y-62087708D02*
X165023124Y-62126940D01*
X165023124Y-62126940D02*
X165307539Y-62165880D01*
X165307539Y-62165880D02*
X165591922Y-62204542D01*
X165591922Y-62204542D02*
X165876278Y-62242941D01*
X165876278Y-62242941D02*
X166160607Y-62281091D01*
X166160607Y-62281091D02*
X166444914Y-62319008D01*
X166444914Y-62319008D02*
X166729202Y-62356705D01*
X166729202Y-62356705D02*
X167013472Y-62394197D01*
X167013472Y-62394197D02*
X167297728Y-62431499D01*
X167297728Y-62431499D02*
X167581972Y-62468625D01*
X167581972Y-62468625D02*
X167866208Y-62505591D01*
X167866208Y-62505591D02*
X168150438Y-62542410D01*
X168150438Y-62542410D02*
X168434665Y-62579098D01*
X168434665Y-62579098D02*
X168718891Y-62615668D01*
X168718891Y-62615668D02*
X169003120Y-62652136D01*
X169003120Y-62652136D02*
X169287354Y-62688516D01*
X169287354Y-62688516D02*
X169571596Y-62724823D01*
X169571596Y-62724823D02*
X169855849Y-62761072D01*
X169855849Y-62761072D02*
X170140116Y-62797276D01*
X170140116Y-62797276D02*
X170424399Y-62833451D01*
X170424399Y-62833451D02*
X170708702Y-62869611D01*
X170708702Y-62869611D02*
X170993026Y-62905771D01*
X170993026Y-62905771D02*
X171277375Y-62941945D01*
X171277375Y-62941945D02*
X171561752Y-62978148D01*
X171561752Y-62978148D02*
X171846159Y-63014395D01*
X171846159Y-63014395D02*
X172130600Y-63050701D01*
X151729154Y-56483886D02*
X151858945Y-56669398D01*
X151858945Y-56669398D02*
X151992218Y-56852697D01*
X151992218Y-56852697D02*
X152129080Y-57033459D01*
X152129080Y-57033459D02*
X152269638Y-57211358D01*
X152269638Y-57211358D02*
X152413996Y-57386068D01*
X152413996Y-57386068D02*
X152562263Y-57557264D01*
X152562263Y-57557264D02*
X152714544Y-57724620D01*
X152714544Y-57724620D02*
X152870946Y-57887812D01*
X152870946Y-57887812D02*
X153031576Y-58046512D01*
X153031576Y-58046512D02*
X153196539Y-58200398D01*
X153196539Y-58200398D02*
X153308975Y-58300152D01*
X186089040Y-68022633D02*
X186225513Y-68206409D01*
X186225513Y-68206409D02*
X186357549Y-68393418D01*
X186357549Y-68393418D02*
X186485605Y-68583325D01*
X186485605Y-68583325D02*
X186610141Y-68775797D01*
X186610141Y-68775797D02*
X186731616Y-68970499D01*
X186731616Y-68970499D02*
X186850489Y-69167095D01*
X186850489Y-69167095D02*
X186967220Y-69365253D01*
X186967220Y-69365253D02*
X187082267Y-69564637D01*
X187082267Y-69564637D02*
X187196089Y-69764913D01*
X187196089Y-69764913D02*
X187309146Y-69965746D01*
X187309146Y-69965746D02*
X187384320Y-70099780D01*
X158279344Y-60875547D02*
X158568834Y-60963524D01*
X158568834Y-60963524D02*
X158859802Y-61046404D01*
X158859802Y-61046404D02*
X159152145Y-61124498D01*
X159152145Y-61124498D02*
X159445761Y-61198115D01*
X159445761Y-61198115D02*
X159740547Y-61267566D01*
X159740547Y-61267566D02*
X160036401Y-61333161D01*
X160036401Y-61333161D02*
X160333220Y-61395211D01*
X160333220Y-61395211D02*
X160630902Y-61454027D01*
X160630902Y-61454027D02*
X160929344Y-61509918D01*
X160929344Y-61509918D02*
X161228444Y-61563195D01*
X161228444Y-61563195D02*
X161528100Y-61614169D01*
X161528100Y-61614169D02*
X161828208Y-61663150D01*
X161828208Y-61663150D02*
X162128667Y-61710449D01*
X162128667Y-61710449D02*
X162429374Y-61756375D01*
X162429374Y-61756375D02*
X162730226Y-61801240D01*
X162730226Y-61801240D02*
X163031121Y-61845354D01*
X148343578Y-50918477D02*
X148531229Y-51151486D01*
X148531229Y-51151486D02*
X148711543Y-51389926D01*
X148711543Y-51389926D02*
X148885163Y-51633269D01*
X148885163Y-51633269D02*
X149052733Y-51880989D01*
X149052733Y-51880989D02*
X149214895Y-52132558D01*
X149214895Y-52132558D02*
X149372292Y-52387451D01*
X149372292Y-52387451D02*
X149525568Y-52645140D01*
X149525568Y-52645140D02*
X149625780Y-52818226D01*
X149625780Y-52818226D02*
X149724636Y-52992164D01*
X149724636Y-52992164D02*
X149822327Y-53166799D01*
X149822327Y-53166799D02*
X149919044Y-53341975D01*
X149919044Y-53341975D02*
X150014977Y-53517535D01*
X150014977Y-53517535D02*
X150062710Y-53605411D01*
M02*
