%TF.GenerationSoftware,KiCad,Pcbnew,5.1.8*%
%TF.CreationDate,2020-11-30T15:55:38+01:00*%
%TF.ProjectId,canon-service-cable,63616e6f-6e2d-4736-9572-766963652d63,rev?*%
%TF.SameCoordinates,Original*%
%TF.FileFunction,Soldermask,Top*%
%TF.FilePolarity,Negative*%
%FSLAX46Y46*%
G04 Gerber Fmt 4.6, Leading zero omitted, Abs format (unit mm)*
G04 Created by KiCad (PCBNEW 5.1.8) date 2020-11-30 15:55:38*
%MOMM*%
%LPD*%
G01*
G04 APERTURE LIST*
%ADD10C,1.800000*%
G04 APERTURE END LIST*
%TO.C,U1*%
G36*
G01*
X51273800Y-75820000D02*
X51273800Y-73320000D01*
G75*
G02*
X51323800Y-73270000I50000J0D01*
G01*
X51476200Y-73270000D01*
G75*
G02*
X51526200Y-73320000I0J-50000D01*
G01*
X51526200Y-75820000D01*
G75*
G02*
X51476200Y-75870000I-50000J0D01*
G01*
X51323800Y-75870000D01*
G75*
G02*
X51273800Y-75820000I0J50000D01*
G01*
G37*
G36*
G01*
X50873800Y-75820000D02*
X50873800Y-73320000D01*
G75*
G02*
X50923800Y-73270000I50000J0D01*
G01*
X51076200Y-73270000D01*
G75*
G02*
X51126200Y-73320000I0J-50000D01*
G01*
X51126200Y-75820000D01*
G75*
G02*
X51076200Y-75870000I-50000J0D01*
G01*
X50923800Y-75870000D01*
G75*
G02*
X50873800Y-75820000I0J50000D01*
G01*
G37*
G36*
G01*
X50473800Y-75820000D02*
X50473800Y-73320000D01*
G75*
G02*
X50523800Y-73270000I50000J0D01*
G01*
X50676200Y-73270000D01*
G75*
G02*
X50726200Y-73320000I0J-50000D01*
G01*
X50726200Y-75820000D01*
G75*
G02*
X50676200Y-75870000I-50000J0D01*
G01*
X50523800Y-75870000D01*
G75*
G02*
X50473800Y-75820000I0J50000D01*
G01*
G37*
G36*
G01*
X50073800Y-75820000D02*
X50073800Y-73320000D01*
G75*
G02*
X50123800Y-73270000I50000J0D01*
G01*
X50276200Y-73270000D01*
G75*
G02*
X50326200Y-73320000I0J-50000D01*
G01*
X50326200Y-75820000D01*
G75*
G02*
X50276200Y-75870000I-50000J0D01*
G01*
X50123800Y-75870000D01*
G75*
G02*
X50073800Y-75820000I0J50000D01*
G01*
G37*
G36*
G01*
X49673800Y-75820000D02*
X49673800Y-73320000D01*
G75*
G02*
X49723800Y-73270000I50000J0D01*
G01*
X49876200Y-73270000D01*
G75*
G02*
X49926200Y-73320000I0J-50000D01*
G01*
X49926200Y-75820000D01*
G75*
G02*
X49876200Y-75870000I-50000J0D01*
G01*
X49723800Y-75870000D01*
G75*
G02*
X49673800Y-75820000I0J50000D01*
G01*
G37*
G36*
G01*
X49273800Y-75820000D02*
X49273800Y-73320000D01*
G75*
G02*
X49323800Y-73270000I50000J0D01*
G01*
X49476200Y-73270000D01*
G75*
G02*
X49526200Y-73320000I0J-50000D01*
G01*
X49526200Y-75820000D01*
G75*
G02*
X49476200Y-75870000I-50000J0D01*
G01*
X49323800Y-75870000D01*
G75*
G02*
X49273800Y-75820000I0J50000D01*
G01*
G37*
G36*
G01*
X48873800Y-75820000D02*
X48873800Y-73320000D01*
G75*
G02*
X48923800Y-73270000I50000J0D01*
G01*
X49076200Y-73270000D01*
G75*
G02*
X49126200Y-73320000I0J-50000D01*
G01*
X49126200Y-75820000D01*
G75*
G02*
X49076200Y-75870000I-50000J0D01*
G01*
X48923800Y-75870000D01*
G75*
G02*
X48873800Y-75820000I0J50000D01*
G01*
G37*
G36*
G01*
X48473800Y-75820000D02*
X48473800Y-73320000D01*
G75*
G02*
X48523800Y-73270000I50000J0D01*
G01*
X48676200Y-73270000D01*
G75*
G02*
X48726200Y-73320000I0J-50000D01*
G01*
X48726200Y-75820000D01*
G75*
G02*
X48676200Y-75870000I-50000J0D01*
G01*
X48523800Y-75870000D01*
G75*
G02*
X48473800Y-75820000I0J50000D01*
G01*
G37*
%TD*%
%TO.C,J1*%
G36*
G01*
X46835295Y-50840000D02*
X45564705Y-50840000D01*
G75*
G02*
X45300000Y-50575295I0J264705D01*
G01*
X45300000Y-49304705D01*
G75*
G02*
X45564705Y-49040000I264705J0D01*
G01*
X46835295Y-49040000D01*
G75*
G02*
X47100000Y-49304705I0J-264705D01*
G01*
X47100000Y-50575295D01*
G75*
G02*
X46835295Y-50840000I-264705J0D01*
G01*
G37*
D10*
X48740000Y-49940000D03*
X51280000Y-49940000D03*
X53820000Y-49940000D03*
X46200000Y-47400000D03*
X48740000Y-47400000D03*
X51280000Y-47400000D03*
X53820000Y-47400000D03*
%TD*%
M02*
